<?xml version="1.0" encoding="utf-8"?>
<!-- Generator: Adobe Illustrator 28.2.0, SVG Export Plug-In . SVG Version: 6.00 Build 0)  -->
<svg version="1.1" id="Layer_1" xmlns="http://www.w3.org/2000/svg" xmlns:xlink="http://www.w3.org/1999/xlink" x="0px" y="0px"
	 viewBox="0 0 800 800" style="enable-background:new 0 0 800 800;" xml:space="preserve">
<style type="text/css">
	.st0{fill:#5FCEFF;}
	.st1{fill:#8B87C1;}
	.st2{fill:#FFB578;}
	.st3{fill:#FF4893;}
	.st4{fill:#4F46A3;}
</style>
<path class="st0" d="M738.7,398.2c0.4,29.1-23,53.1-52.1,53.4l-124.6,0l-144.6-0.1l-205.2-0.1l-100.1-51.1l100.2-54.5l201.4,0.1
	L554,346l131.3,0.1C714.4,345.7,738.4,369.1,738.7,398.2L738.7,398.2z"/>
<path class="st1" d="M489.6,555.7L382,710.7l-49.3,0l84.7-259.2l144.6,0.1L489.6,555.7z M554,346l-140.4-0.1L333,98.2l49.3,0
	L554,346L554,346z"/>
<path class="st2" d="M212.2,451.4l-98.1,73.7l-52.9,0l50.8-124.8L212.2,451.4z"/>
<path class="st3" d="M212.3,345.8l-100.2,54.5L61.4,274.2l52.9,0.8L212.3,345.8z"/>
<path class="st4" d="M403.2,356.4c-1.6-1.6-2.9-3.7-3.6-5.9l-80.6-247.8c-2.5-7.8,1.7-16.1,9.5-18.6c1.5-0.5,3-0.7,4.6-0.7l49.3,0
	c4.9,0,9.4,2.4,12.2,6.4l171.7,247.8c4.7,6.7,3,15.9-3.7,20.6c-6.7,4.7-15.9,3-20.6-3.7c0,0,0,0,0,0L374.6,113l-21.2,0l74.3,228.4
	c2.5,7.8-1.7,16.1-9.5,18.7C412.9,361.8,407.1,360.3,403.2,356.4L403.2,356.4z M322.2,721.2c-3.9-3.9-5.3-9.8-3.6-15.1l84.7-259.2
	c2.5-7.8,10.8-12.1,18.6-9.6c7.8,2.5,12.1,10.8,9.6,18.6c0,0.1-0.1,0.2-0.1,0.3l-78.3,239.8l21.2,0l175.5-252.8
	c4.7-6.7,13.9-8.3,20.6-3.7c6.7,4.7,8.3,13.8,3.7,20.5L394.2,719.2c-2.8,4-7.3,6.4-12.2,6.4l-49.3,0
	C328.8,725.5,325,723.9,322.2,721.2L322.2,721.2z"/>
<path class="st4" d="M50.8,535.6c-4.2-4.2-5.5-10.5-3.2-16l48.6-119.3L47.7,279.7c-3-7.6,0.6-16.2,8.2-19.2c1.8-0.7,3.8-1.1,5.8-1.1
	l52.9,0.8c3,0,6,1,8.4,2.8l94.1,68l468.2,0.3c18.2-0.2,35.5,6.8,48.5,19.8c12.5,12.5,19.5,29.2,19.7,46.9c0.2,18-6.6,35.1-19.2,48
	c-12.6,12.9-29.5,20.2-47.6,20.4l-469.6-0.2L123,537c-2.6,1.9-5.7,3-8.9,3l-52.9,0C57.4,539.9,53.6,538.4,50.8,535.6z M83.4,289.3
	l42.4,105.5c1.4,3.6,1.4,7.5,0,11.1L83.3,510.3l25.9,0l94.1-70.8c2.6-1.9,5.7-3,8.9-3l474.4,0.2c10-0.1,19.5-4.2,26.5-11.4
	c7.1-7.2,10.9-16.9,10.8-27c-0.1-9.9-4.1-19.4-11.1-26.4c-7.2-7.3-17.1-11.3-27.4-11.1l-473.2-0.3c-3.1,0-6.1-1-8.7-2.8l-94.2-68.1
	L83.4,289.3z M479.2,566.2c-5.8-5.8-5.8-15.2,0-20.9c2.8-2.8,6.5-4.3,10.5-4.3l61.6,0c8.2-0.1,14.9,6.4,15,14.6
	c0.1,8.2-6.4,14.9-14.6,15c-0.1,0-0.3,0-0.4,0l-61.6,0C485.7,570.5,481.9,569,479.2,566.2z M436.8,636c-5.8-5.8-5.8-15.2,0-20.9
	c2.8-2.8,6.5-4.3,10.5-4.3l61.6,0c8.2,0.1,14.7,6.8,14.6,14.9c-0.1,8.1-6.6,14.6-14.7,14.6l-61.6,0
	C443.4,640.3,439.6,638.8,436.8,636z M479.3,257.6c-5.8-5.8-5.8-15.2,0-20.9c2.8-2.8,6.5-4.3,10.5-4.3l61.6,0
	c8.2-0.1,14.9,6.4,15,14.6c0.1,8.2-6.4,14.9-14.6,15c-0.1,0-0.3,0-0.4,0l-61.6,0C485.8,261.9,482.1,260.4,479.3,257.6L479.3,257.6z
	 M437,187.8c-5.8-5.8-5.8-15.2,0-20.9c2.8-2.8,6.5-4.3,10.5-4.3l61.6,0c8.2,0.1,14.7,6.8,14.6,14.9c-0.1,8.1-6.6,14.6-14.7,14.6
	l-61.6,0C443.6,192.2,439.8,190.6,437,187.8L437,187.8z"/>
<path class="st4" d="M101.6,410.8c-5.8-5.8-5.8-15.2,0-20.9c4.5-4.5,11.5-5.6,17.2-2.7l100.1,51.1c7.3,3.7,10.2,12.6,6.5,19.9
	c-3.7,7.3-12.6,10.2-19.9,6.5l-100.1-51.1C104,412.8,102.7,411.9,101.6,410.8L101.6,410.8z"/>
<path class="st4" d="M101.6,410.8c-5.8-5.8-5.8-15.1,0-20.9c1-1,2.1-1.9,3.4-2.5l100.2-54.5c7.2-3.9,16.2-1.2,20.1,5.9
	c3.9,7.2,1.2,16.2-5.9,20.1l-100.2,54.5C113.4,416.4,106.3,415.4,101.6,410.8L101.6,410.8z"/>
</svg>
