<?xml version="1.0" encoding="utf-8"?>
<!-- Generator: Adobe Illustrator 28.2.0, SVG Export Plug-In . SVG Version: 6.00 Build 0)  -->
<svg version="1.1" id="Layer_1" xmlns="http://www.w3.org/2000/svg" xmlns:xlink="http://www.w3.org/1999/xlink" x="0px" y="0px"
	 viewBox="0 0 800 800" style="enable-background:new 0 0 800 800;" xml:space="preserve">
<style type="text/css">
	.st0{fill:#C9005B;}
	.st1{fill:#F5B146;}
	.st2{fill:#0092D2;}
	.st3{fill:#0085BF;}
	.st4{fill:#EDA02F;}
</style>
<path class="st0" d="M505.1,545.4l-90.2,134l-101.7-0.6l37.2-118.2 M505.1,254.6l-90.2-134l-101.7,0.5l37.2,118.2"/>
<path class="st1" d="M215.3,517.9c58.9,35.5,121,53.3,209,55.7c140.3,3.6,242.3-68.5,325.1-170.4v-5.4
	c-82.8-102-184.8-167.3-325.1-163.6c-87.5,2.3-149.4,19.8-208,54.8C216.4,335.9,215.5,503.2,215.3,517.9z"/>
<path class="st2" d="M67.5,265.4l110.7,42.8l0,185.1L67.5,534.6l4.3-80.8L11.9,400l59.8-53.9L67.5,265.4z"/>
<path class="st3" d="M178.2,493.3l0-93.4l-166.2,0l-0.1,0.1l59.8,53.8l-4.3,80.8L178.2,493.3z"/>
<path class="st4" d="M249.7,536.1c8.8,4.2,17.8,8,26.9,11.4c0.7,0.3,1.4,0.6,2.2,0.9c21.7,7.9,44.7,13.9,69.8,18.1
	c23.2,3.9,48.1,6.3,75.8,7.1c22.8,0.6,45.7-1,68.3-4.7c10.4-1.6,20.8-3.8,31-6.4c4.9-1.3,9.6-2.7,14.3-4.2
	c5.1-1.6,10.2-3.3,15.3-5.1c9.6-3.4,19-7.3,28.3-11.6c2.8-1.3,5.7-2.6,8.5-4c19.3-9.6,37.8-20.9,55.3-33.6c1.6-1.2,3.2-2.4,4.8-3.6
	c10.5-7.8,20.6-16.1,30.4-24.8c1.4-1.2,2.8-2.4,4.2-3.7c16.6-15,32.4-31.3,47.5-48.6c1.4-1.6,2.8-3.3,4.2-4.9
	c4.4-5.1,8.7-10.2,13-15.4v-3.3l-533.4,0c0,6.9-0.1,13.7-0.1,20.5c-0.1,21.3-0.2,41.4-0.3,58c0,4.1,0,8-0.1,11.6v2.2
	c-0.1,13.3-0.1,22.7-0.2,25.7c9.1,5.5,18.5,10.5,28,15.2C245.5,534.1,247.6,535.1,249.7,536.1L249.7,536.1z"/>
</svg>
