<?xml version="1.0" encoding="utf-8"?>
<!-- Generator: Adobe Illustrator 28.2.0, SVG Export Plug-In . SVG Version: 6.00 Build 0)  -->
<svg version="1.1" id="Layer_1" xmlns="http://www.w3.org/2000/svg" xmlns:xlink="http://www.w3.org/1999/xlink" x="0px" y="0px"
	 viewBox="0 0 800 800" style="enable-background:new 0 0 800 800;" xml:space="preserve">
<style type="text/css">
	.st0{fill:#C4E4EF;}
	.st1{fill:#6AA4CA;}
</style>
<path class="st0" d="M76.7,355.6l0,102.6c0,5-0.4,9.8-1,14.6l618.3-0.1c39.9,0,72.2-30.2,72.2-67.5c0-37.3-32.3-67.5-72.2-67.5
	l-618.8,0.1C76.2,343.6,76.7,349.5,76.7,355.6L76.7,355.6z"/>
<path class="st1" d="M572.4,472.7L302,726.5l-61.4,0l131-253.8L572.4,472.7z M201.6,472.7l-70.9,68.1l-72.6,0l20.3-68.1L201.6,472.7
	z M206.1,337.8l-70.9-68l-72.5,0l20.3,68L206.1,337.8z M573.4,337.7L303,84l-61.5,0l131.1,253.7L573.4,337.7z M75.6,393.9l0,23.6
	c0,1.1-0.1,2.3-0.3,3.4l147.9,0c9.5,0,17.2-7,17.2-15.5c0-8.6-7.7-15.5-17.3-15.5l-148.1,0C75.5,391.1,75.6,392.5,75.6,393.9
	L75.6,393.9z"/>
</svg>
