<?xml version="1.0" encoding="utf-8"?>
<!-- Generator: Adobe Illustrator 28.2.0, SVG Export Plug-In . SVG Version: 6.00 Build 0)  -->
<svg version="1.1" id="Layer_1" xmlns="http://www.w3.org/2000/svg" xmlns:xlink="http://www.w3.org/1999/xlink" x="0px" y="0px"
	 viewBox="0 0 800 800" style="enable-background:new 0 0 800 800;" xml:space="preserve">
<style type="text/css">
	.st0{fill:#66757F;}
	.st1{fill:#55ACEE;}
	.st2{fill:#CCD6DD;}
</style>
<path class="st0" d="M424.7,628.7c-9.8-0.1-17.7-8.1-17.6-17.9c0,0,0-0.1,0-0.1l0.4-35.7c0.1-9.8,8.1-17.7,17.9-17.6
	c0,0,0.1,0,0.1,0l71.3,0.9c9.8,0.1,17.7,8.2,17.6,18c0,0,0,0,0,0l-0.4,35.7c-0.1,9.8-8.1,17.7-17.9,17.6c0,0-0.1,0-0.1,0
	L424.7,628.7z M429.2,250.4c-9.8-0.1-17.7-8.1-17.6-17.9c0,0,0-0.1,0-0.1l0.4-35.7c0.1-9.8,8.1-17.7,17.9-17.6c0,0,0.1,0,0.1,0
	l71.3,0.9c9.8,0.1,17.7,8.2,17.6,18c0,0,0,0,0,0l-0.4,35.7c-0.1,9.8-8.1,17.7-17.9,17.6c0,0-0.1,0-0.1,0L429.2,250.4L429.2,250.4z"
	/>
<path class="st1" d="M99.2,248.6c24.9,25.5,124.3,152.8,124.3,152.8S121,526.4,95.5,551.3c-25.5,24.9-50.4-0.6-50.1-25.8
	c0.3-25.2,26.7-125.8,26.7-125.8s-24-101.2-23.7-126.4C48.7,248,74.2,223.1,99.2,248.6z M327.8,75.3c37.9,37.8,299.2,331,299.2,331
	S357.7,692.2,319.9,730.1s-85.5,14.6-48.1-49.3s153.4-276.9,153.4-276.9S307.7,170.8,278.5,123.3C240.1,61.1,289.9,37.4,327.8,75.3z
	"/>
<path class="st2" d="M653.1,331c50.4,0.6,125.5,52,125.2,77.2s-76.6,74.8-127,74.2s-466.5-18.2-466.5-18.2s-138.4-26.9-138-64.7
	S186.4,338,186.4,338S602.7,330.3,653.1,331z"/>
<path class="st0" d="M248.7,401.8c0,0-0.2,12.6-113.7,11.2c-113.5-1.4-113.3-14-113.3-14s0.2-12.6,113.7-11.2
	C248.8,389.2,248.7,401.8,248.7,401.8z M665.3,368.9c20.6,21.1,20.2,55-0.9,75.7l10,10.3c5.4-2.5,10.7-5.5,15.2-10
	c21.1-20.6,21.6-54.5,0.9-75.7c-4.4-4.5-9.6-7.7-14.9-10.3L665.3,368.9z"/>
</svg>
