<?xml version="1.0" encoding="utf-8"?>
<!-- Generator: Adobe Illustrator 28.2.0, SVG Export Plug-In . SVG Version: 6.00 Build 0)  -->
<svg version="1.1" id="Layer_1" xmlns="http://www.w3.org/2000/svg" xmlns:xlink="http://www.w3.org/1999/xlink" x="0px" y="0px"
	 viewBox="0 0 1280 1024" style="enable-background:new 0 0 1280 1024;" xml:space="preserve">
<style type="text/css">
	.st0{fill:#FFFFFF;stroke:#000000;stroke-miterlimit:10;}
</style>
<path class="st0" d="M306.5,182.5"/>
<path class="st0" d="M95.8,824.1C333.3,461.9,921.5-81.5,1141.5,66.5C1316,184,1268.1,742.5,1012,878.5
	c-348,184.7-971.3-469.3-919.8-560c60.1-105.8,1163.1,332.2,1134.3,458.1c-27.9,121.8-1134.4,35.7-1153-141
	c-19.5-186.1,1174.7-404.4,1154-532c-21.6-133.4-1154.2-57.9-1154-32c0.2,25.7,1115.3-87.5,1185,169
	c67.1,246.7-836.5,821.2-1010,665c-136.2-122.7,91-774,394-800c325-27.9,643.6,671.7,538,774c-130.3,126.3-1070.7-497.6-1000-688
	c61.1-164.6,909.5-92,953,114c51.4,243.4-1006.8,739.4-1083,635C38.6,924.2,50.6,893,95.8,824.1z"/>
</svg>
