<?xml version="1.0" encoding="UTF-8"?>
<svg id="Layer_1" data-name="Layer 1" xmlns="http://www.w3.org/2000/svg" viewBox="0 0 1130.61 891.71">
  <defs>
    <style>
      .cls-1 {
        fill: #fff;
        stroke: #000;
        stroke-miterlimit: 10;
      }
    </style>
  </defs>
  <path id="path" class="cls-1" d="M450.09,199.79c74.57-57.03,173.34-40.67,215,19,39.05,55.93,20.03,138.59-24,177-70.81,61.78-196.29.37-254-44-38.24-29.4-123.71-110.5-104-174,37.04-119.31,459.93-223.2,622-16,133.86,171.14,34.51,483.84-162,592-250.62,137.94-605.71-86.27-666-333-8.39-34.32-35.59-145.68,25-216C283.77-6.07,1134.77,291.28,1130.09,515.79c-4.9,234.77-947.57,485.81-1042,324C-9.41,672.72,719.39-68.08,961.09,56.79c178.24,92.08,150.89,685.54-67,786C608.7,974.37-62.17,287.21,38.09,88.79,121.96-77.21,790.99,8.87,836.09,197.79,889.8,422.81,70.71,845.89,5.09,764.79c-25.5-31.52,46.35-159.53,445-565Z"/>
</svg>