<?xml version="1.0" encoding="utf-8"?>
<!-- Generator: Adobe Illustrator 28.2.0, SVG Export Plug-In . SVG Version: 6.00 Build 0)  -->
<svg version="1.1" id="Layer_1" xmlns="http://www.w3.org/2000/svg" xmlns:xlink="http://www.w3.org/1999/xlink" x="0px" y="0px"
	 viewBox="0 0 1280 1024" style="enable-background:new 0 0 1280 1024;" xml:space="preserve">
<style type="text/css">
	.st0{fill:#FFFFFF;stroke:#000000;stroke-miterlimit:10;}
</style>
<path class="st0" d="M306.5,182.5"/>
<path class="st0" d="M954.5,156.5c96.6,91.7,147.1,236,120,366c-60.5,289.8-495,450.6-655,326c-171.1-133.2-79.3-632.1,134-708
	c255.5-90.9,676.3,428.4,604,553c-68.3,117.7-635.9-15.4-667-206c-25.3-154.8,313.8-282.6,280-375c-37-101.1-502.8-111.6-585,64
	c-114,243.6,500.8,865.7,665,780c117.4-61.3,81-524.6-124-621c-233.7-109.9-659.6,269.9-622,353c51.6,114,1068.8-121.4,1079-377
	c4.1-103.3-156.2-209.3-293-219c-386.7-27.5-741.1,703.4-618,838c106.1,116.1,669-100,673-330c4-230.6-554.2-454.2-633-363
	c-75,86.9,198.7,559.5,403,521c126.9-23.9,237.7-247.3,181-395c-83.1-216.5-500-203.7-495-255C406,62.4,751.3-36.4,954.5,156.5z"/>
</svg>
