<?xml version="1.0" encoding="utf-8"?>
<!-- Generator: Adobe Illustrator 28.2.0, SVG Export Plug-In . SVG Version: 6.00 Build 0)  -->
<svg version="1.1" id="Layer_1" xmlns="http://www.w3.org/2000/svg" xmlns:xlink="http://www.w3.org/1999/xlink" x="0px" y="0px"
	 viewBox="0 0 1280 1024" style="enable-background:new 0 0 1280 1024;" xml:space="preserve">
<style type="text/css">
	.st0{fill:#FFFFFF;stroke:#000000;stroke-miterlimit:10;}
</style>
<path class="st0" d="M202.5,208.8c207.4-165,682.3,34.6,706.8,269.4c24.3,233.2-393.7,518.3-586.4,420.3
	c-202.6-103-185.2-644,10.8-749c249-133.4,811.8,423,755.3,526.3C1025,792.4,85.2,489.5,101.9,320.2
	C117.5,162.6,969,44.3,1033.2,204.3C1104,380.7,249.5,974.7,148.6,877C78.3,808.8,290.2,322.8,577,314.8
	c291.1-8.1,533.6,479.5,461.6,558.6C949.2,971.6,217.5,612,256.4,351.6C290.1,126.3,909.2-79,1100.6,129.8
	c163.8,178.7,45.8,694.6-300.9,809.2c-290.1,95.9-643.9-121.3-696.9-389.8C81.5,441.2,101.8,288.9,202.5,208.8z"/>
</svg>
